<svg version="1.1" viewBox="0.0 0.0 960.0 720.0" fill="none" stroke="none" stroke-linecap="square" stroke-miterlimit="10" xmlns:xlink="http://www.w3.org/1999/xlink" xmlns="http://www.w3.org/2000/svg"><clipPath id="p.0"><path d="m0 0l960.0 0l0 720.0l-960.0 0l0 -720.0z" clip-rule="nonzero"/></clipPath><g clip-path="url(#p.0)"><path fill="#000000" fill-opacity="0.0" d="m0 0l960.0 0l0 720.0l-960.0 0z" fill-rule="evenodd"/><path fill="#ff2dba" d="m421.39432 237.35664l-57.637787 43.626053l0 188.90936l57.637787 -43.626038z" fill-rule="evenodd"/><path fill="#f943bd" d="m421.40884 237.35664l174.83463 43.708664l0 188.82675l-174.83463 -43.70865z" fill-rule="evenodd"/><path fill="#e516a0" d="m363.76898 281.02014l174.83466 43.70868l0 188.82678l-174.83466 -43.70868z" fill-rule="evenodd"/><path fill="#ff00aa" d="m596.24146 281.02014l-57.637817 43.62607l0 188.9094l57.637817 -43.62607z" fill-rule="evenodd"/><path fill="#f943bd" d="m466.55176 232.21858l25.997559 6.499405l0 28.076904l-25.997559 -6.4993896z" fill-rule="evenodd"/><path fill="#f943bd" d="m466.55176 206.44376l25.997559 6.4993896l0 28.076904l-25.997559 -6.4993896z" fill-rule="evenodd"/><path fill="#f943bd" d="m492.04156 212.95139l25.997559 6.499405l0 28.076904l-25.997559 -6.4993896z" fill-rule="evenodd"/><path fill="#f943bd" d="m517.5314 219.45901l25.997559 6.4993896l0 28.076904l-25.997559 -6.4993896z" fill-rule="evenodd"/><path fill="#f943bd" d="m517.5314 246.4633l25.997559 6.4993896l0 28.07692l-25.997559 -6.4993896z" fill-rule="evenodd"/><path fill="#e516a0" d="m414.31616 276.19116l25.99759 6.4993896l0 28.076904l-25.99759 -6.4993896z" fill-rule="evenodd"/><path fill="#e516a0" d="m414.3159 250.41629l25.997559 6.4993896l0 28.076904l-25.997559 -6.4993896z" fill-rule="evenodd"/><path fill="#e516a0" d="m439.80573 256.92322l25.99759 6.4993896l0 28.076904l-25.99759 -6.4993896z" fill-rule="evenodd"/><path fill="#e516a0" d="m465.2956 263.431l25.99759 6.4993896l0 28.076904l-25.99759 -6.4993896z" fill-rule="evenodd"/><path fill="#e516a0" d="m465.29596 290.43597l25.99759 6.4993896l0 28.076904l-25.99759 -6.4993896z" fill-rule="evenodd"/></g></svg>